# xmcd
#
# Track frame offsets:
#	150
#	33627
#	75425
#	107043
#	166835
#	226245
#
# Disc length: 3646 seconds
#
# Revision: 1
# Processed by: cddbd v1.5.2PL0 Copyright (c) Steve Scherf et al.
# Submitted via: audiograbber 1.83.01
#
DISCID=3a0e3c06
DTITLE=Grateful Dead - 78-11-21A Community War Memorial, Rochester NY
DYEAR=1900
DGENRE=
TTITLE0=Bertha
TTITLE1=Good Lovin'
TTITLE2=Stagger Lee
TTITLE3=Estimated Prophet
TTITLE4=Eyes Of The World
TTITLE5=Drums
EXTD=
EXTT0=
EXTT1=
EXTT2=
EXTT3=
EXTT4=
EXTT5=
PLAYORDER=
